<svg xmlns="http://www.w3.org/2000/svg" xmlns:xlink="http://www.w3.org/1999/xlink" width="256" zoomAndPan="magnify" viewBox="0 0 192 191.999996" height="256" preserveAspectRatio="xMidYMid meet" version="1.0"><defs><clipPath id="83aa2a26f8"><path d="M 42.910156 28.078125 L 178.660156 28.078125 L 178.660156 163.828125 L 42.910156 163.828125 Z M 42.910156 28.078125 " clip-rule="nonzero"/></clipPath><clipPath id="3ca6616376"><path d="M 5.300781 32.070312 L 93 32.070312 L 93 159.570312 L 5.300781 159.570312 Z M 5.300781 32.070312 " clip-rule="nonzero"/></clipPath><clipPath id="fb1d217769"><path d="M 17.136719 104 L 190 104 L 190 186 L 17.136719 186 Z M 17.136719 104 " clip-rule="nonzero"/></clipPath></defs><g clip-path="url(#83aa2a26f8)"><path fill="#004aad" d="M 178.742188 53.738281 L 153.074219 28.078125 L 110.828125 70.320312 L 68.574219 28.078125 L 42.910156 53.738281 L 85.160156 95.996094 L 42.910156 138.242188 L 68.574219 163.910156 L 110.828125 121.660156 L 153.074219 163.910156 L 178.742188 138.242188 L 136.492188 95.996094 Z M 178.742188 53.738281 " fill-opacity="1" fill-rule="nonzero"/></g><g clip-path="url(#3ca6616376)"><path fill="#38b6ff" d="M 18.667969 159.921875 C 15.101562 159.921875 11.542969 158.492188 8.921875 155.671875 C 3.925781 150.292969 4.238281 141.878906 9.621094 136.882812 L 53.652344 95.996094 L 9.621094 55.109375 C 4.238281 50.113281 3.925781 41.699219 8.921875 36.320312 C 13.914062 30.9375 22.332031 30.625 27.710938 35.621094 L 92.734375 95.996094 L 27.710938 156.367188 C 25.152344 158.746094 21.90625 159.921875 18.667969 159.921875 Z M 18.667969 159.921875 " fill-opacity="1" fill-rule="nonzero"/></g><path fill="#72e8d2" d="M 168.621094 121.351562 C 156.078125 133.785156 134.242188 139.90625 123.277344 142.320312 C 137.699219 135.679688 153.804688 124.117188 167.125 104.175781 C 167.125 104.171875 171.957031 109.65625 168.621094 121.351562 Z M 168.621094 121.351562 " fill-opacity="1" fill-rule="nonzero"/><g clip-path="url(#fb1d217769)"><path fill="#72e8d2" d="M 17.136719 166.667969 C 17.136719 166.667969 31.082031 129.167969 61.292969 124.808594 C 91.503906 120.449219 96.730469 132.945312 130.71875 120.738281 C 130.71875 120.738281 136.527344 139.050781 100.21875 143.699219 C 100.21875 143.699219 96.441406 150.96875 107.773438 150.96875 C 119.101562 150.96875 159.1875 145.902344 187.078125 104.167969 C 187.078125 104.167969 200.148438 118.992188 168.484375 151.839844 C 136.824219 184.683594 96.734375 201.550781 17.136719 166.667969 Z M 17.136719 166.667969 " fill-opacity="1" fill-rule="nonzero"/></g><path fill="#e24065" d="M 139.714844 61.820312 C 133.949219 56.054688 124.609375 56.054688 118.847656 61.820312 L 111.082031 69.589844 L 103.320312 61.820312 C 97.554688 56.054688 88.210938 56.054688 82.453125 61.820312 C 79.570312 64.703125 78.132812 68.480469 78.132812 72.257812 C 78.132812 76.039062 79.574219 79.816406 82.453125 82.699219 L 111.085938 111.351562 L 111.089844 111.351562 L 139.722656 82.699219 C 145.476562 76.933594 145.476562 67.582031 139.714844 61.820312 Z M 121.632812 88.332031 L 114.984375 88.332031 L 114.984375 94.980469 L 107.167969 94.980469 L 107.167969 88.332031 L 100.527344 88.332031 L 100.527344 80.511719 L 107.167969 80.511719 L 107.167969 73.863281 L 114.984375 73.863281 L 114.984375 80.515625 L 121.632812 80.515625 Z M 121.632812 88.332031 " fill-opacity="1" fill-rule="nonzero"/></svg>