<svg xmlns="http://www.w3.org/2000/svg" xmlns:xlink="http://www.w3.org/1999/xlink" width="400" zoomAndPan="magnify" viewBox="0 0 300 191.999996" height="256" preserveAspectRatio="xMidYMid meet" version="1.0"><defs><g/><clipPath id="c1cc9b78fc"><path d="M 29.363281 55.71875 L 109.964844 55.71875 L 109.964844 136.320312 L 29.363281 136.320312 Z M 29.363281 55.71875 " clip-rule="nonzero"/></clipPath><clipPath id="f76707b54e"><path d="M 7.035156 58.089844 L 59 58.089844 L 59 133.792969 L 7.035156 133.792969 Z M 7.035156 58.089844 " clip-rule="nonzero"/></clipPath><clipPath id="ec0d23f052"><path d="M 14.0625 100.796875 L 116.699219 100.796875 L 116.699219 149.484375 L 14.0625 149.484375 Z M 14.0625 100.796875 " clip-rule="nonzero"/></clipPath></defs><g clip-path="url(#c1cc9b78fc)"><path fill="#004aad" d="M 110.015625 70.953125 L 94.773438 55.71875 L 69.691406 80.800781 L 44.601562 55.71875 L 29.363281 70.953125 L 54.449219 96.046875 L 29.363281 121.128906 L 44.601562 136.371094 L 69.691406 111.285156 L 94.773438 136.371094 L 110.015625 121.128906 L 84.929688 96.046875 Z M 110.015625 70.953125 " fill-opacity="1" fill-rule="nonzero"/></g><g clip-path="url(#f76707b54e)"><path fill="#38b6ff" d="M 14.972656 134 C 12.855469 134 10.742188 133.152344 9.183594 131.476562 C 6.21875 128.285156 6.402344 123.289062 9.601562 120.320312 L 35.742188 96.046875 L 9.601562 71.769531 C 6.402344 68.800781 6.21875 63.808594 9.183594 60.613281 C 12.148438 57.417969 17.148438 57.230469 20.339844 60.199219 L 58.949219 96.046875 L 20.339844 131.890625 C 18.820312 133.304688 16.894531 134 14.972656 134 Z M 14.972656 134 " fill-opacity="1" fill-rule="nonzero"/></g><path fill="#72e8d2" d="M 104.007812 111.101562 C 96.558594 118.484375 83.59375 122.117188 77.082031 123.550781 C 85.644531 119.609375 95.207031 112.742188 103.117188 100.902344 C 103.117188 100.898438 105.988281 104.15625 104.007812 111.101562 Z M 104.007812 111.101562 " fill-opacity="1" fill-rule="nonzero"/><g clip-path="url(#ec0d23f052)"><path fill="#72e8d2" d="M 14.0625 138.007812 C 14.0625 138.007812 22.34375 115.742188 40.28125 113.152344 C 58.21875 110.566406 61.320312 117.984375 81.5 110.734375 C 81.5 110.734375 84.949219 121.609375 63.390625 124.371094 C 63.390625 124.371094 61.148438 128.683594 67.878906 128.683594 C 74.605469 128.683594 98.40625 125.675781 114.964844 100.898438 C 114.964844 100.898438 122.726562 109.699219 103.925781 129.203125 C 85.125 148.703125 61.324219 158.71875 14.0625 138.007812 Z M 14.0625 138.007812 " fill-opacity="1" fill-rule="nonzero"/></g><path fill="#e24065" d="M 86.84375 75.753906 C 83.417969 72.332031 77.875 72.332031 74.453125 75.753906 L 69.84375 80.367188 L 65.234375 75.753906 C 61.808594 72.332031 56.261719 72.332031 52.84375 75.753906 C 51.132812 77.464844 50.277344 79.707031 50.277344 81.949219 C 50.277344 84.195312 51.132812 86.4375 52.84375 88.152344 L 69.84375 105.164062 L 69.847656 105.164062 L 86.847656 88.152344 C 90.265625 84.726562 90.265625 79.175781 86.84375 75.753906 Z M 76.105469 91.496094 L 72.160156 91.496094 L 72.160156 95.441406 L 67.519531 95.441406 L 67.519531 91.496094 L 63.574219 91.496094 L 63.574219 86.851562 L 67.519531 86.851562 L 67.519531 82.902344 L 72.160156 82.902344 L 72.160156 86.855469 L 76.105469 86.855469 Z M 76.105469 91.496094 " fill-opacity="1" fill-rule="nonzero"/><g fill="#ffffff" fill-opacity="1"><g transform="translate(90.524733, 106.020639)"><g><path d="M 28.96875 0 L 27.4375 -19.09375 L 27.25 -19.09375 L 20.640625 -0.1875 L 16.28125 -0.1875 L 9.6875 -19.09375 L 9.484375 -19.09375 L 7.96875 0 L 0.625 0 L 3.515625 -32.203125 L 11.3125 -32.203125 L 18.46875 -13.625 L 25.609375 -32.203125 L 33.40625 -32.203125 L 36.296875 0 Z M 28.96875 0 "/></g></g></g><g fill="#ffffff" fill-opacity="1"><g transform="translate(127.440922, 106.020639)"><g><path d="M 20.765625 -32.203125 L 20.765625 -25.765625 L 9.6875 -25.765625 L 9.6875 -19.359375 L 20.296875 -19.359375 L 20.296875 -12.921875 L 9.6875 -12.921875 L 9.6875 -6.4375 L 20.765625 -6.4375 L 20.765625 0 L 2.34375 0 L 2.34375 -32.203125 Z M 20.765625 -32.203125 "/></g></g></g><g fill="#ffffff" fill-opacity="1"><g transform="translate(150.07453, 106.020639)"><g><path d="M 2.34375 -32.203125 L 11.671875 -32.203125 C 16.148438 -32.203125 19.972656 -30.671875 23.140625 -27.609375 C 26.316406 -24.554688 27.90625 -20.726562 27.90625 -16.125 C 27.90625 -11.488281 26.320312 -7.640625 23.15625 -4.578125 C 20 -1.523438 16.171875 0 11.671875 0 L 2.34375 0 Z M 9.6875 -6.5625 L 10.8125 -6.5625 C 13.488281 -6.5625 15.675781 -7.460938 17.375 -9.265625 C 19.082031 -11.078125 19.953125 -13.347656 19.984375 -16.078125 C 19.984375 -18.804688 19.128906 -21.082031 17.421875 -22.90625 C 15.722656 -24.726562 13.519531 -25.640625 10.8125 -25.640625 L 9.6875 -25.640625 Z M 9.6875 -6.5625 "/></g></g></g><g fill="#ffffff" fill-opacity="1"><g transform="translate(178.873836, 106.020639)"><g><path d="M 9.6875 -32.203125 L 9.6875 0 L 2.34375 0 L 2.34375 -32.203125 Z M 9.6875 -32.203125 "/></g></g></g><g fill="#ffffff" fill-opacity="1"><g transform="translate(190.893062, 106.020639)"><g><path d="M 19.484375 -6.640625 C 20.597656 -6.640625 21.679688 -6.804688 22.734375 -7.140625 C 23.785156 -7.484375 24.5625 -7.8125 25.0625 -8.125 L 25.796875 -8.625 L 28.921875 -2.375 C 28.816406 -2.300781 28.671875 -2.195312 28.484375 -2.0625 C 28.304688 -1.9375 27.882812 -1.695312 27.21875 -1.34375 C 26.5625 -0.988281 25.851562 -0.679688 25.09375 -0.421875 C 24.34375 -0.160156 23.351562 0.0664062 22.125 0.265625 C 20.90625 0.472656 19.644531 0.578125 18.34375 0.578125 C 15.351562 0.578125 12.515625 -0.15625 9.828125 -1.625 C 7.148438 -3.09375 4.988281 -5.113281 3.34375 -7.6875 C 1.707031 -10.257812 0.890625 -13.046875 0.890625 -16.046875 C 0.890625 -18.304688 1.367188 -20.476562 2.328125 -22.5625 C 3.296875 -24.644531 4.582031 -26.425781 6.1875 -27.90625 C 7.789062 -29.382812 9.65625 -30.566406 11.78125 -31.453125 C 13.914062 -32.335938 16.101562 -32.78125 18.34375 -32.78125 C 20.425781 -32.78125 22.34375 -32.53125 24.09375 -32.03125 C 25.851562 -31.539062 27.097656 -31.050781 27.828125 -30.5625 L 28.921875 -29.8125 L 25.796875 -23.578125 C 25.617188 -23.734375 25.347656 -23.921875 24.984375 -24.140625 C 24.617188 -24.359375 23.890625 -24.648438 22.796875 -25.015625 C 21.703125 -25.378906 20.597656 -25.5625 19.484375 -25.5625 C 17.710938 -25.5625 16.125 -25.273438 14.71875 -24.703125 C 13.3125 -24.128906 12.195312 -23.375 11.375 -22.4375 C 10.550781 -21.5 9.925781 -20.488281 9.5 -19.40625 C 9.070312 -18.332031 8.859375 -17.238281 8.859375 -16.125 C 8.859375 -13.675781 9.773438 -11.484375 11.609375 -9.546875 C 13.441406 -7.609375 16.066406 -6.640625 19.484375 -6.640625 Z M 19.484375 -6.640625 "/></g></g></g><g fill="#ffffff" fill-opacity="1"><g transform="translate(220.277723, 106.020639)"><g><path d="M 18.703125 -32.203125 L 31.6875 0 L 23.8125 0 L 21.421875 -6.4375 L 9.171875 -6.4375 L 6.796875 0 L -1.09375 0 L 11.90625 -32.203125 Z M 18.9375 -12.875 L 15.34375 -22.25 L 15.265625 -22.25 L 11.671875 -12.875 Z M 18.9375 -12.875 "/></g></g></g><g fill="#ffffff" fill-opacity="1"><g transform="translate(250.872115, 106.020639)"><g><path d="M 9.6875 -32.203125 L 9.6875 -6.4375 L 20.765625 -6.4375 L 20.765625 0 L 2.34375 0 L 2.34375 -32.203125 Z M 9.6875 -32.203125 "/></g></g></g><g fill="#ffffff" fill-opacity="1"><g transform="translate(272.92037, 106.020639)"><g><path d="M 9.6875 -32.203125 L 9.6875 -6.4375 L 20.765625 -6.4375 L 20.765625 0 L 2.34375 0 L 2.34375 -32.203125 Z M 9.6875 -32.203125 "/></g></g></g></svg>